<svg xmlns="http://www.w3.org/2000/svg" viewBox="0 0 512 512">
  <defs>
    <linearGradient id="bg-dark" x1="56" y1="24" x2="456" y2="488" gradientUnits="userSpaceOnUse">
      <stop offset="0" stop-color="#0b1b3f"/>
      <stop offset="0.52" stop-color="#071225"/>
      <stop offset="1" stop-color="#030712"/>
    </linearGradient>
    <linearGradient id="dragon-dark" x1="112" y1="82" x2="418" y2="432" gradientUnits="userSpaceOnUse">
      <stop offset="0" stop-color="#38bdf8"/>
      <stop offset="0.42" stop-color="#1d4ed8"/>
      <stop offset="1" stop-color="#0b2f93"/>
    </linearGradient>
    <linearGradient id="teal-dark" x1="220" y1="210" x2="410" y2="424" gradientUnits="userSpaceOnUse">
      <stop offset="0" stop-color="#2dd4bf"/>
      <stop offset="1" stop-color="#0d9488"/>
    </linearGradient>
    <filter id="soft-shadow-dark" x="-20%" y="-20%" width="140%" height="140%">
      <feDropShadow dx="0" dy="18" stdDeviation="24" flood-color="#000000" flood-opacity="0.42"/>
    </filter>
  </defs>

  <rect width="512" height="512" rx="108" fill="url(#bg-dark)"/>
  <rect x="18" y="18" width="476" height="476" rx="94" fill="none" stroke="#38bdf8" stroke-width="3" opacity="0.16"/>
  <path d="M74 410C154 456 306 466 407 365C462 310 474 222 421 157"
        fill="none" stroke="#14b8a6" stroke-width="8" stroke-linecap="round" opacity="0.22"/>

  <g filter="url(#soft-shadow-dark)">
    <path d="M178 383V169c0-38 28-66 66-66c52 0 103 19 140 56c61 61 61 159 0 220c-37 37-89 56-145 56"
          fill="none" stroke="url(#dragon-dark)" stroke-width="38" stroke-linecap="round" stroke-linejoin="round"/>
    <path d="M210 365h-58V166c0-45 32-78 77-78"
          fill="none" stroke="#60a5fa" stroke-width="22" stroke-linecap="round" stroke-linejoin="round" opacity="0.92"/>
    <path d="M184 150c12-40 45-66 88-66l-22-35c35 24 72 34 116 35c23 14 37 37 39 67h-68c-12-15-29-23-52-22c-35 1-61 20-76 56z"
          fill="url(#dragon-dark)"/>
    <path d="M304 101c17 3 31 10 41 22h-28c-8 0-13-7-13-22z"
          fill="#e0f2fe" opacity="0.92"/>
    <path d="M364 169l52-3l-20 29h-50z"
          fill="#38bdf8"/>
    <path d="M319 160L212 395"
          fill="none" stroke="#e0f2fe" stroke-width="48" stroke-linecap="square"/>
    <path d="M323 159L216 394"
          fill="none" stroke="#0b3a9d" stroke-width="29" stroke-linecap="square"/>
    <path d="M277 214l-58 31l58 31"
          fill="none" stroke="#2dd4bf" stroke-width="26" stroke-linecap="square" stroke-linejoin="miter"/>
    <path d="M289 417c62-12 105-48 129-104c-13 66-60 111-136 119z"
          fill="url(#teal-dark)"/>
  </g>
</svg>
